<?xml version="1.0" encoding="UTF-8"?>
<svg width="20px" height="20px" viewBox="0 0 20 20" version="1.1" xmlns="http://www.w3.org/2000/svg" xmlns:xlink="http://www.w3.org/1999/xlink">
    <!-- Generator: Sketch 49.3 (51167) - http://www.bohemiancoding.com/sketch -->
    <title>ic/icDelete</title>
    <desc>Created with Sketch.</desc>
    <defs></defs>
    <g id="ic/icDelete" stroke="none" stroke-width="1" fill="none" fill-rule="evenodd">
        <g id="Page-1" transform="translate(2.000000, 1.000000)" fill="#EB5A6B">
            <path d="M5.51118462,1.53846154e-05 L5.51118462,2.29016923 L-4.61538462e-05,2.29016923 L-4.61538462e-05,6.10909231 L1.02564615,6.10909231 L2.17256923,17.9143231 L13.2119538,17.9143231 L14.3587231,6.10909231 L15.3845692,6.10909231 L15.3845692,2.29016923 L9.87333846,2.29016923 L9.87333846,1.53846154e-05 L5.51118462,1.53846154e-05 Z M6.56087692,2.29016923 L8.8238,2.29016923 L8.8238,1.04970769 L6.56087692,1.04970769 L6.56087692,2.29016923 Z M1.04964615,5.0594 L14.3348769,5.0594 L14.3348769,3.33970769 L1.04964615,3.33970769 L1.04964615,5.0594 Z M2.08041538,6.10909231 L13.3042615,6.10909231 L12.2594923,16.8646308 L3.12518462,16.8646308 L2.08041538,6.10909231 Z" id="Fill-1"></path>
            <polygon id="Fill-2" points="7.16738462 14.8238462 8.21707692 14.8238462 8.21707692 8.15246154 7.16738462 8.15246154"></polygon>
            <polygon id="Fill-3" points="9.97446154 8.15243077 9.66184615 14.8236615 10.7126154 14.8236615 11.0253846 8.15243077"></polygon>
            <polygon id="Fill-4" points="5.41015385 8.15243077 4.35923077 8.15243077 4.672 14.8236615 5.72276923 14.8236615"></polygon>
        </g>
    </g>
</svg>