<?xml version="1.0" encoding="UTF-8"?>
<svg width="100px" height="29px" viewBox="0 0 100 29" version="1.1" xmlns="http://www.w3.org/2000/svg" xmlns:xlink="http://www.w3.org/1999/xlink">
    <!-- Generator: Sketch 49.3 (51167) - http://www.bohemiancoding.com/sketch -->
    <title>logo</title>
    <desc>Created with Sketch.</desc>
    <defs>
        <polygon id="path-1" points="0 0.560432099 13.9553086 0.560432099 13.9553086 28.0487037 0 28.0487037"></polygon>
        <polygon id="path-3" points="0.395679012 0.229012346 14.0957445 0.229012346 14.0957445 28.395 0.395679012 28.395"></polygon>
        <polygon id="path-5" points="0.308271605 0.560555556 15.5740741 0.560555556 15.5740741 28.0482099 0.308271605 28.0482099"></polygon>
    </defs>
    <g id="Symbols" stroke="none" stroke-width="1" fill="none" fill-rule="evenodd">
        <g id="logo/white">
            <g id="logo">
                <g id="Group-3" transform="translate(0.000000, 0.388519)">
                    <mask id="mask-2" fill="white">
                        <use xlink:href="#path-1"></use>
                    </mask>
                    <g id="Clip-2"></g>
                    <path d="M4.4608642,23.949321 L6.19419753,23.949321 C7.60037037,23.949321 8.57506173,23.2258642 9.11765432,21.7789506 C9.30839506,21.2875926 9.40407407,20.7196914 9.40407407,20.0764815 C9.40407407,18.5388272 9.10716049,17.4190741 8.5145679,16.7153704 C7.99234568,16.0727778 7.21888889,15.7511728 6.19419753,15.7511728 L4.4608642,15.7511728 L4.4608642,23.949321 Z M4.4608642,11.7875926 L6.19419753,11.7875926 C7.48,11.7875926 8.34419753,11.1598148 8.78617284,9.90425926 C8.94666667,9.43203704 9.02691358,8.85425926 9.02691358,8.17092593 C9.02691358,7.02524691 8.75098765,6.16166667 8.19851852,5.57895062 C7.68617284,5.03635802 7.01765432,4.76475309 6.19419753,4.76475309 L4.4608642,4.76475309 L4.4608642,11.7875926 Z M-0.00024691358,28.0487037 L-0.00024691358,0.560432099 L6.19419753,0.560432099 C7.83123457,0.560432099 9.30839506,0.992530864 10.6244444,1.85611111 C11.7497531,2.59006173 12.5534568,3.72030864 13.0361728,5.24746914 C13.2966667,6.07154321 13.4275309,7.04561728 13.4275309,8.17092593 C13.4275309,10.0091975 12.9404938,11.486358 11.9658025,12.6017901 C11.5540741,13.0641358 11.071358,13.4203086 10.5188889,13.6715432 C11.4330864,14.0233951 12.2120988,14.7166049 12.8553086,15.7511728 C13.2867901,16.4542593 13.6034568,17.3585802 13.8046914,18.4635185 C13.9046914,19.036358 13.9553086,19.6746296 13.9553086,20.377716 C13.9553086,22.1159877 13.6287654,23.5931481 12.975679,24.8085802 C12.4633333,25.7530247 11.7398765,26.5110494 10.8053086,27.0838889 C9.75037037,27.7270988 8.70530864,28.0487037 7.67074074,28.0487037 L-0.00024691358,28.0487037 Z" id="Fill-1" fill="#FFFFFF" mask="url(#mask-2)"></path>
                </g>
                <path d="M24.0674691,28.7835802 C22.2489506,28.7835802 20.7038889,28.1483951 19.4335185,26.8774074 C18.1625309,25.607037 17.5267284,24.0662963 17.5267284,22.2582716 L17.5267284,0.949012346 L21.5810494,0.949012346 L21.5810494,22.2125926 C21.5810494,22.8662963 21.8143827,23.4237037 22.2816667,23.8854321 C22.7489506,24.3477778 23.3088272,24.578642 23.9619136,24.578642 C24.6248765,24.578642 25.1853704,24.3477778 25.6421605,23.8854321 C26.0995679,23.4237037 26.327963,22.8662963 26.327963,22.2125926 L26.327963,0.949012346 L30.6532716,0.949012346 L30.6532716,22.2582716 C30.6532716,24.0965432 30.0100617,25.6440741 28.7242593,26.8996296 C27.4378395,28.1558025 25.8859877,28.7835802 24.0674691,28.7835802" id="Fill-4" fill="#FFFFFF"></path>
                <polygon id="Fill-6" fill="#FFFFFF" points="39.4844444 16.9231481 33.9387654 0.949074074 38.49 0.949074074 41.5714815 10.8200617 44.6233333 0.949074074 49.2048148 0.949074074 43.6288889 16.9231481 43.6288889 28.4367284 39.4844444 28.4367284"></polygon>
                <g id="Group-10" transform="translate(50.000000, 0.388519)">
                    <mask id="mask-4" fill="white">
                        <use xlink:href="#path-3"></use>
                    </mask>
                    <g id="Clip-9"></g>
                    <path d="M14.0944444,21.2215432 C14.1246914,23.140679 13.6271605,24.7783333 12.6024691,26.1345062 C11.9290123,27.0591975 10.9796296,27.7073457 9.75432099,28.0783333 C9.09135802,28.2894444 8.32222222,28.395 7.44814815,28.395 C5.82098765,28.395 4.47469136,27.9937654 3.40925926,27.1894444 C2.52530864,26.5264815 1.82222222,25.6301852 1.29938272,24.4999383 C0.777160494,23.3690741 0.475925926,22.0653704 0.395679012,20.5888272 L4.32901235,20.3172222 C4.50987654,21.9147531 4.93641975,23.0703086 5.60987654,23.7832716 C6.10185185,24.3258642 6.66975309,24.582037 7.31296296,24.5524074 C8.21728395,24.5221605 8.94012346,24.0801852 9.48271605,23.2258642 C9.76419753,22.7943827 9.90493827,22.1857407 9.90493827,21.4024074 C9.90493827,20.2474691 9.38765432,19.1067284 8.35246914,17.9814198 C7.52839506,17.207963 6.29814815,16.0474691 4.66049383,14.5005556 C3.28395062,13.1740123 2.31419753,11.9838889 1.75185185,10.9289506 C1.13888889,9.74314815 0.832716049,8.45734568 0.832716049,7.07092593 C0.832716049,4.56907407 1.67160494,2.67524691 3.34938272,1.38944444 C4.38395062,0.615987654 5.67037037,0.228950617 7.20740741,0.228950617 C8.68395062,0.228950617 9.95,0.560432099 11.0049383,1.22339506 C11.8185185,1.73574074 12.4765432,2.45179012 12.9790123,3.37092593 C13.4814815,4.29006173 13.7876543,5.34808642 13.8987654,6.54314815 L9.91975309,7.26660494 C9.80925926,6.1412963 9.48765432,5.26722222 8.95555556,4.64438272 C8.57345679,4.18203704 8.02592593,3.95117284 7.31296296,3.95117284 C6.55925926,3.95117284 5.98148148,4.28759259 5.57962963,4.96104938 C5.25802469,5.50364198 5.09753086,6.17648148 5.09753086,6.98018519 C5.09753086,8.23635802 5.64012346,9.51722222 6.72530864,10.8233951 C7.13703704,11.3159877 7.75,11.8980864 8.56358025,12.5715432 C9.52839506,13.3752469 10.1660494,13.9382099 10.4777778,14.2591975 C11.4919753,15.2838889 12.2808642,16.2937654 12.8438272,17.2882099 C13.104321,17.7505556 13.3154321,18.1826543 13.4765432,18.5845062 C13.8685185,19.5591975 14.0740741,20.4375926 14.0944444,21.2215432" id="Fill-8" fill="#0072FF" mask="url(#mask-4)"></path>
                </g>
                <polygon id="Fill-11" fill="#0072FF" points="71.6748765 19.7564198 71.6748765 28.437284 67.5304321 28.437284 67.5304321 0.949012346 71.6748765 0.949012346 71.6748765 10.7446914 76.7082099 0.949012346 81.1390741 0.949012346 75.4724074 12.1916049 82.1038889 28.437284 77.2359877 28.437284 72.8958642 17.3002469"></polygon>
                <g id="Group-15" transform="translate(83.950617, 0.388519)">
                    <mask id="mask-6" fill="white">
                        <use xlink:href="#path-5"></use>
                    </mask>
                    <g id="Clip-14"></g>
                    <polygon id="Fill-13" fill="#0072FF" mask="url(#mask-6)" points="5.85395062 16.5346296 0.308271605 0.560555556 4.85950617 0.560555556 7.94098765 10.4315432 10.9928395 0.560555556 15.574321 0.560555556 9.99839506 16.5346296 9.99839506 28.0482099 5.85395062 28.0482099"></polygon>
                </g>
            </g>
        </g>
    </g>
</svg>